<svg width="300" height="300" viewBox="0 0 300 300" fill="none" xmlns="http://www.w3.org/2000/svg" role="img" aria-label="cat coding on a laptop">
  <!-- soft round backdrop -->
  <circle cx="150" cy="150" r="132" fill="#17140F"/>
  <circle cx="150" cy="150" r="132" fill="none" stroke="#F5F2EA" stroke-width="2"/>

  <!-- little sparkles -->
  <path d="M240 78 l3 8 8 3 -8 3 -3 8 -3 -8 -8 -3 8 -3z" fill="#E5533B"/>
  <path d="M64 96 l2 6 6 2 -6 2 -2 6 -2 -6 -6 -2 6 -2z" fill="#F5F2EA"/>

  <g stroke="#F5F2EA" stroke-width="5" stroke-linecap="round" stroke-linejoin="round" fill="none">
    <!-- body sitting -->
    <path d="M108 210 C104 168 126 150 150 150 C174 150 196 168 192 210 Z" fill="#2A2621"/>
    <!-- head -->
    <circle cx="150" cy="126" r="40" fill="#2A2621"/>
    <!-- ears -->
    <path d="M120 100 L112 70 L142 92 Z" fill="#2A2621"/>
    <path d="M180 100 L188 70 L158 92 Z" fill="#2A2621"/>
    <!-- tail -->
    <path d="M192 200 C224 202 230 176 214 164" fill="none"/>
  </g>

  <!-- face -->
  <circle cx="137" cy="124" r="4.2" fill="#F5F2EA"/>
  <circle cx="163" cy="124" r="4.2" fill="#F5F2EA"/>
  <path d="M146 137 q4 5 8 0" stroke="#E5533B" stroke-width="3.5" stroke-linecap="round" fill="none"/>
  <!-- whiskers -->
  <g stroke="#F5F2EA" stroke-width="2.5" stroke-linecap="round">
    <path d="M112 128 l-22 -4"/><path d="M112 136 l-22 4"/>
    <path d="M188 128 l22 -4"/><path d="M188 136 l22 4"/>
  </g>

  <!-- laptop -->
  <g stroke="#F5F2EA" stroke-width="5" stroke-linejoin="round" stroke-linecap="round">
    <rect x="112" y="196" width="76" height="42" rx="5" fill="#F5F2EA"/>
    <rect x="100" y="238" width="100" height="10" rx="5" fill="#2A2621"/>
  </g>
  <!-- code lines on screen -->
  <g stroke="#E5533B" stroke-width="3" stroke-linecap="round">
    <path d="M124 210 h18"/><path d="M124 219 h30"/><path d="M124 228 h14"/>
  </g>
</svg>
